<svg width="610" height="630" viewBox="0 0 610 630" fill="none" xmlns="http://www.w3.org/2000/svg">
<path d="M0 481.824H610V482.139H0V481.824Z" fill="#EBEBEB"/>
<path d="M61.1219 502.097H87.5715V502.412H61.1219V502.097Z" fill="#EBEBEB"/>
<path d="M189.503 495.571H231.117V495.886H189.503V495.571Z" fill="#EBEBEB"/>
<path d="M71.8336 490.405H126.16V490.72H71.8336V490.405Z" fill="#EBEBEB"/>
<path d="M398.916 496.755H412.506V497.07H398.916V496.755Z" fill="#EBEBEB"/>
<path d="M423.377 496.755H470.212V497.07H423.377V496.755Z" fill="#EBEBEB"/>
<path d="M495.308 491.438H529.102V491.753H495.308V491.438Z" fill="#EBEBEB"/>
<path d="M320.86 425.628H556.43C558.275 425.625 560.044 424.865 561.348 423.516C562.652 422.167 563.384 420.339 563.384 418.433V76.4316C563.368 74.5366 562.628 72.7246 561.326 71.3893C560.024 70.054 558.265 69.3032 556.43 69.3H320.86C319.012 69.3 317.241 70.058 315.934 71.4072C314.628 72.7565 313.894 74.5865 313.894 76.4946V418.433C313.894 420.342 314.628 422.172 315.934 423.521C317.241 424.87 319.012 425.628 320.86 425.628ZM556.43 69.552C558.194 69.5553 559.886 70.2816 561.132 71.5714C562.379 72.8612 563.079 74.6092 563.079 76.4316V418.433C563.079 420.256 562.379 422.004 561.132 423.294C559.886 424.583 558.194 425.31 556.43 425.313H320.86C319.094 425.31 317.402 424.584 316.153 423.294C314.905 422.005 314.202 420.257 314.199 418.433V76.4316C314.202 74.608 314.905 72.8601 316.153 71.5707C317.402 70.2812 319.094 69.5553 320.86 69.552H556.43Z" fill="#EBEBEB"/>
<path d="M56.9618 425.628H292.544C294.39 425.625 296.16 424.866 297.466 423.517C298.772 422.169 299.507 420.341 299.51 418.433V76.4316C299.491 74.5354 298.749 72.7235 297.445 71.3886C296.141 70.0536 294.38 69.3032 292.544 69.3H56.9618C55.129 69.3065 53.3725 70.0588 52.0731 71.3938C50.7737 72.7287 50.036 74.5388 50.02 76.4316V418.433C50.02 420.337 50.7506 422.163 52.0517 423.512C53.3529 424.86 55.1185 425.621 56.9618 425.628ZM292.544 69.552C294.309 69.5553 296.002 70.2812 297.25 71.5707C298.499 72.8601 299.202 74.608 299.205 76.4316V418.433C299.202 420.257 298.499 422.005 297.25 423.294C296.002 424.584 294.309 425.31 292.544 425.313H56.9618C55.1961 425.31 53.5037 424.584 52.2552 423.294C51.0067 422.005 50.3038 420.257 50.3006 418.433V76.4316C50.3038 74.608 51.0067 72.8601 52.2552 71.5707C53.5037 70.2812 55.1961 69.5553 56.9618 69.552H292.544Z" fill="#EBEBEB"/>
<path d="M469.7 220.034C462.934 220.034 456.446 217.258 451.662 212.317C446.877 207.376 444.19 200.675 444.19 193.687C444.19 186.7 446.877 179.998 451.662 175.057C456.446 170.116 462.934 167.341 469.7 167.341H472.835V220.034H469.7Z" fill="#E0E0E0"/>
<path d="M472.86 220.034C458.771 220.034 447.35 208.238 447.35 193.687C447.35 179.136 458.771 167.341 472.86 167.341C486.949 167.341 498.37 179.136 498.37 193.687C498.37 208.238 486.949 220.034 472.86 220.034Z" fill="#F5F5F5"/>
<path d="M474.031 196.988C483.091 196.988 491.78 193.271 498.186 186.655C504.592 180.039 508.191 171.065 508.191 161.708V140.654C508.191 139.775 507.853 138.932 507.251 138.311C506.649 137.689 505.833 137.34 504.982 137.34C504.131 137.34 503.315 137.689 502.714 138.311C502.112 138.932 501.774 139.775 501.774 140.654V161.721C501.767 169.316 498.844 176.598 493.645 181.969C488.447 187.341 481.397 190.363 474.043 190.373C473.606 190.345 473.168 190.41 472.756 190.564C472.344 190.718 471.967 190.957 471.648 191.267C471.328 191.576 471.074 191.95 470.9 192.366C470.727 192.781 470.637 193.228 470.637 193.681C470.637 194.133 470.727 194.581 470.9 194.996C471.074 195.411 471.328 195.785 471.648 196.095C471.967 196.405 472.344 196.644 472.756 196.798C473.168 196.951 473.606 197.016 474.043 196.988H474.031Z" fill="#E0E0E0"/>
<path d="M533.347 159.201H476.593C475.685 159.201 474.79 158.986 473.975 158.572C473.161 158.159 472.449 157.557 471.895 156.815C471.341 156.072 470.96 155.208 470.78 154.289C470.6 153.371 470.627 152.421 470.859 151.515L475.8 132.3C476.134 130.995 476.875 129.84 477.91 129.015C478.945 128.19 480.215 127.741 481.522 127.739H528.419C529.727 127.741 530.999 128.189 532.036 129.014C533.073 129.838 533.817 130.994 534.153 132.3L539.033 151.49C539.27 152.394 539.303 153.342 539.129 154.262C538.955 155.181 538.579 156.047 538.03 156.792C537.48 157.537 536.772 158.142 535.96 158.56C535.148 158.978 534.254 159.197 533.347 159.201Z" fill="#F5F5F5"/>
<path d="M109.458 220.034C102.693 220.034 96.204 217.258 91.4199 212.317C86.6358 207.376 83.9481 200.675 83.9481 193.687C83.9481 186.7 86.6358 179.998 91.4199 175.057C96.204 170.116 102.693 167.341 109.458 167.341H112.594V220.034H109.458Z" fill="#E0E0E0"/>
<path d="M112.594 220.034C98.5049 220.034 87.0836 208.238 87.0836 193.687C87.0836 179.136 98.5049 167.341 112.594 167.341C126.683 167.341 138.104 179.136 138.104 193.687C138.104 208.238 126.683 220.034 112.594 220.034Z" fill="#F5F5F5"/>
<path d="M113.765 196.988C122.825 196.988 131.514 193.271 137.92 186.655C144.326 180.039 147.925 171.065 147.925 161.708V140.654C147.925 139.775 147.587 138.932 146.985 138.311C146.384 137.689 145.567 137.34 144.716 137.34C143.865 137.34 143.049 137.689 142.448 138.311C141.846 138.932 141.508 139.775 141.508 140.654V161.721C141.501 169.316 138.578 176.598 133.379 181.969C128.181 187.341 121.131 190.363 113.777 190.373C113.34 190.345 112.902 190.41 112.49 190.564C112.078 190.718 111.701 190.957 111.382 191.267C111.063 191.576 110.808 191.95 110.634 192.366C110.461 192.781 110.371 193.228 110.371 193.681C110.371 194.133 110.461 194.581 110.634 194.996C110.808 195.411 111.063 195.785 111.382 196.095C111.701 196.405 112.078 196.644 112.49 196.798C112.902 196.951 113.34 197.016 113.777 196.988H113.765Z" fill="#E0E0E0"/>
<path d="M173.081 159.201H116.327C115.419 159.201 114.524 158.986 113.709 158.572C112.895 158.159 112.183 157.557 111.629 156.815C111.075 156.072 110.694 155.208 110.514 154.289C110.334 153.371 110.361 152.421 110.593 151.515L115.473 132.325C115.807 131.02 116.548 129.865 117.583 129.04C118.618 128.215 119.888 127.767 121.195 127.764H168.153C169.461 127.766 170.733 128.214 171.77 129.039C172.807 129.864 173.551 131.019 173.887 132.325L178.767 151.515C179 152.417 179.029 153.363 178.853 154.279C178.677 155.195 178.301 156.058 177.752 156.8C177.203 157.542 176.496 158.144 175.687 158.561C174.877 158.977 173.986 159.196 173.081 159.201Z" fill="#F5F5F5"/>
<path d="M446.544 397.984H427.988V323.732H446.544V397.984Z" fill="#E6E6E6"/>
<path d="M496.845 397.971H435.272L425.975 311.069H487.549L496.845 397.971Z" fill="#F0F0F0"/>
<path d="M503.518 397.971H439.908L430.611 311.069H494.21L503.518 397.971Z" fill="#F5F5F5"/>
<path d="M444.507 391.129L436.675 317.923H489.623L497.455 391.129H444.507Z" fill="white"/>
<path d="M455.438 373.376L455.06 370.44C453.096 352.069 464.198 335.702 478.618 335.702L478.948 338.688C480.912 357.046 469.81 373.414 455.377 373.414L455.438 373.376Z" fill="#F5F5F5"/>
<path d="M537.91 481.824H483.205V397.971H537.91V481.824Z" fill="#E6E6E6"/>
<path d="M532.42 481.824H537.922V465.658H526.65L532.42 481.824Z" fill="#F0F0F0"/>
<path d="M384.593 481.824H329.888V397.971H384.593V481.824Z" fill="#E6E6E6"/>
<path d="M537.922 471.908H379.798V397.984H537.922V471.908Z" fill="#F0F0F0"/>
<path d="M385.3 481.824H379.798V465.658H391.071L385.3 481.824Z" fill="#F0F0F0"/>
<path d="M533.652 432.432H384.068V402.595H533.652V432.432Z" fill="#E6E6E6"/>
<path d="M468.834 422.1H448.887C444.598 422.102 440.354 421.2 436.415 419.449C432.475 417.699 428.923 415.137 425.975 411.919H491.745C488.796 415.135 485.244 417.696 481.305 419.446C477.365 421.197 473.122 422.1 468.834 422.1Z" fill="#F0F0F0"/>
<path d="M533.652 467.082H384.068V437.245H533.652V467.082Z" fill="#E6E6E6"/>
<path d="M468.834 456.7H448.887C444.598 456.701 440.354 455.799 436.415 454.049C432.475 452.298 428.923 449.736 425.975 446.519H491.745C488.796 449.734 485.244 452.295 481.305 454.046C477.365 455.796 473.122 456.699 468.834 456.7Z" fill="#F0F0F0"/>
<path d="M389.814 394.556H388.399C388.399 391.545 388.399 383.922 388.253 366.446C387.997 334.757 387.509 332.829 387.509 332.829L390.876 347.458C393.011 363.649 390.254 379.928 389.814 394.556Z" fill="#E6E6E6"/>
<path d="M392.608 345.24C397.488 339.28 407.797 337.541 418.387 336.055C422.547 335.475 407.468 345.29 400.087 352.258C394.353 357.676 390.693 359.176 389.107 364.568C388.302 357.84 388.436 350.419 392.608 345.24Z" fill="#E6E6E6"/>
<path d="M386.179 355.925C381.299 349.965 370.99 348.239 360.4 346.752C356.24 346.172 371.38 355.988 378.7 362.956C384.434 368.374 388.094 369.873 389.68 375.266C390.485 368.537 390.4 361.066 386.179 355.925Z" fill="#E6E6E6"/>
<path d="M388.253 331.38C384.593 324.248 375.492 317.52 365.231 315C361.205 314.005 374.564 328.154 379.64 337.289C383.58 344.371 388.802 352.712 389.619 358.709C390.839 346.891 391.888 338.549 388.253 331.38Z" fill="#E6E6E6"/>
<path d="M388.692 397.971C393.011 397.971 396.585 395.741 396.842 392.868L397.561 387.979H379.81L380.542 392.868C380.786 395.741 384.3 397.971 388.692 397.971Z" fill="#F0F0F0"/>
<path d="M378.664 389.857H398.708L399.282 384.401H378.09L378.664 389.857Z" fill="#F0F0F0"/>
<path d="M403.161 285.667H207.705L207.705 101.543L403.161 101.543V285.667Z" fill="#E6E6E6"/>
<path d="M407.553 285.667H209.62L209.62 101.543L407.553 101.543V285.667Z" fill="#F5F5F5"/>
<path d="M217.526 277.427V109.796L399.672 109.796V277.427H217.526Z" fill="#FAFAFA"/>
<path d="M239.864 277.427L311.551 109.796H335.903L264.215 277.427H239.864Z" fill="white"/>
<path d="M271.121 277.427L342.808 109.796H359.571L287.883 277.427H271.121Z" fill="white"/>
<path d="M332.035 277.414V109.784H341.454V277.414H332.035Z" fill="#E6E6E6"/>
<path d="M269.425 277.414V109.784H278.843V277.414H269.425Z" fill="#E6E6E6"/>
<path d="M333.731 282.656V103.66H345.638V282.656H333.731Z" fill="#F5F5F5"/>
<path d="M271.121 282.656V103.66H283.028V282.656H271.121Z" fill="#F5F5F5"/>
<path d="M398.818 277.427V109.796H399.66V277.427H398.818Z" fill="#E6E6E6"/>
<path d="M410.872 90.9342H199.128C198.858 90.9375 198.599 91.05 198.407 91.2478C198.216 91.4456 198.107 91.7129 198.104 91.9926C198.107 92.2711 198.216 92.5371 198.408 92.7329C198.6 92.9287 198.859 93.0384 199.128 93.0384H410.872C411.141 93.0384 411.4 92.9287 411.592 92.7329C411.784 92.5371 411.893 92.2711 411.896 91.9926C411.893 91.7129 411.784 91.4456 411.593 91.2478C411.401 91.05 411.142 90.9375 410.872 90.9342Z" fill="#E6E6E6"/>
<path d="M207.705 97.8768C207.342 97.8735 206.994 97.722 206.738 97.4553C206.482 97.1887 206.339 96.8284 206.339 96.453V93.4038C206.337 93.2174 206.371 93.0325 206.439 92.8599C206.507 92.6872 206.607 92.5301 206.735 92.3978C206.862 92.2654 207.013 92.1603 207.179 92.0886C207.346 92.0169 207.525 91.98 207.705 91.98C208.069 91.98 208.417 92.1282 208.676 92.3925C208.934 92.6568 209.08 93.0158 209.084 93.3912V96.4404C209.084 96.8192 208.939 97.1826 208.681 97.4516C208.422 97.7207 208.072 97.8735 207.705 97.8768Z" fill="#E6E6E6"/>
<path d="M395.524 97.8768C395.159 97.8735 394.811 97.7224 394.553 97.4561C394.295 97.1898 394.149 96.8296 394.145 96.453V93.4038C394.145 93.0262 394.291 92.664 394.549 92.397C394.808 92.13 395.158 91.98 395.524 91.98C395.886 91.98 396.234 92.1287 396.49 92.3933C396.746 92.658 396.89 93.0169 396.89 93.3912V96.4404C396.892 96.6274 396.858 96.8128 396.79 96.9862C396.722 97.1596 396.622 97.3175 396.495 97.4509C396.368 97.5842 396.217 97.6905 396.051 97.7636C395.884 97.8367 395.705 97.8751 395.524 97.8768Z" fill="#E6E6E6"/>
<path opacity="0.6" d="M410.554 236.174L212.756 236.174L212.756 91.9801L410.554 91.9801V236.174Z" fill="#E0E0E0"/>
<path d="M194.846 327.562H228.957C232.582 327.562 235.521 330.597 235.521 334.341V350.645C235.521 354.389 232.582 357.424 228.957 357.424H194.846C191.221 357.424 188.283 354.389 188.283 350.645V334.341C188.283 330.597 191.221 327.562 194.846 327.562Z" fill="#FAFAFA"/>
<path d="M190.491 322.043H233.313C234.532 322.043 235.521 323.064 235.521 324.324V326.164C235.521 327.423 234.532 328.444 233.313 328.444H190.491C189.271 328.444 188.283 327.423 188.283 326.164V324.324C188.283 323.064 189.271 322.043 190.491 322.043Z" fill="#E6E6E6"/>
<path d="M234.826 390.6C234.826 390.6 234.203 411.604 210.511 411.604C186.819 411.604 186.196 390.6 186.196 390.6H234.826Z" fill="#F0F0F0"/>
<path d="M180.804 390.6C180.804 390.6 180.182 411.604 156.489 411.604C132.797 411.604 132.175 390.6 132.175 390.6H180.804Z" fill="#F0F0F0"/>
<path d="M143.911 314.042H190.759C195.745 314.042 199.787 318.217 199.787 323.366V348.113C199.787 353.262 195.745 357.437 190.759 357.437H143.911C138.925 357.437 134.883 353.262 134.883 348.113V323.366C134.883 318.217 138.925 314.042 143.911 314.042Z" fill="#F0F0F0"/>
<path d="M137.909 306.457H196.762C198.433 306.457 199.787 307.856 199.787 309.582V312.127C199.787 313.853 198.433 315.252 196.762 315.252H137.909C136.238 315.252 134.883 313.853 134.883 312.127V309.582C134.883 307.856 136.238 306.457 137.909 306.457Z" fill="#F5F5F5"/>
<path d="M252.674 481.824H246.525V377.698H252.674V481.824Z" fill="#E6E6E6"/>
<path d="M75.1276 357.424H108.421V377.685H75.1276V357.424Z" fill="#E6E6E6"/>
<path d="M273.963 377.698H108.434V357.437H273.963V377.698Z" fill="#F5F5F5"/>
<path d="M75.1276 411.541H108.421V431.802H75.1276V411.541Z" fill="#E6E6E6"/>
<path d="M273.963 431.802H108.434V411.541H273.963V431.802Z" fill="#F5F5F5"/>
<path d="M87.1445 481.824H80.9957L80.9957 377.698H87.1445L87.1445 481.824Z" fill="#E6E6E6"/>
<path d="M114.57 481.824H108.421L108.421 377.698H114.57L114.57 481.824Z" fill="#F5F5F5"/>
<path d="M273.963 481.824H267.814V377.698H273.963V481.824Z" fill="#F5F5F5"/>
<path d="M305 538.726C174.359 538.726 68.4541 532.34 68.4541 524.462C68.4541 516.585 174.359 510.199 305 510.199C435.641 510.199 541.546 516.585 541.546 524.462C541.546 532.34 435.641 538.726 305 538.726Z" fill="#F5F5F5"/>
<path d="M292.3 460.53H447.935C450.438 460.493 452.835 459.481 454.645 457.695C456.455 455.91 457.545 453.484 457.695 450.904L471.652 171.751C471.729 170.509 471.558 169.264 471.147 168.094C470.737 166.924 470.097 165.854 469.268 164.952C468.439 164.049 467.438 163.333 466.328 162.849C465.218 162.364 464.024 162.122 462.819 162.137H307.184C304.682 162.17 302.285 163.18 300.475 164.963C298.665 166.747 297.575 169.171 297.424 171.751L283.491 450.904C283.414 452.144 283.585 453.387 283.994 454.556C284.403 455.725 285.04 456.794 285.866 457.697C286.693 458.6 287.691 459.318 288.798 459.805C289.904 460.293 291.097 460.539 292.3 460.53Z" fill="white"/>
<path opacity="0.8" d="M292.3 460.53H447.935C450.438 460.493 452.835 459.481 454.645 457.695C456.455 455.91 457.545 453.484 457.695 450.904L471.652 171.751C471.729 170.509 471.558 169.264 471.147 168.094C470.737 166.924 470.097 165.854 469.268 164.952C468.439 164.049 467.438 163.333 466.328 162.849C465.218 162.364 464.024 162.122 462.819 162.137H307.184C304.682 162.17 302.285 163.18 300.475 164.963C298.665 166.747 297.575 169.171 297.424 171.751L283.491 450.904C283.414 452.144 283.585 453.387 283.994 454.556C284.403 455.725 285.04 456.794 285.866 457.697C286.693 458.6 287.691 459.318 288.798 459.805C289.904 460.293 291.097 460.539 292.3 460.53Z" fill="white"/>
<path d="M322.544 153.04H339.758V154.3H322.544V153.04Z" fill="white"/>
<path d="M345.724 153.04H352.031V154.3H345.724V153.04Z" fill="white"/>
<path d="M285.602 442.814H434.442C436.839 442.79 439.138 441.83 440.876 440.125C442.615 438.421 443.664 436.1 443.812 433.629L457.134 166.635C457.208 165.447 457.044 164.255 456.651 163.136C456.258 162.016 455.646 160.993 454.852 160.129C454.058 159.265 453.1 158.58 452.038 158.117C450.976 157.654 449.832 157.422 448.679 157.437H299.839C297.443 157.464 295.145 158.428 293.409 160.135C291.673 161.842 290.627 164.164 290.482 166.635L277.16 433.629C277.086 434.816 277.25 436.005 277.642 437.123C278.034 438.241 278.645 439.264 279.438 440.126C280.231 440.989 281.188 441.673 282.248 442.135C283.309 442.598 284.451 442.829 285.602 442.814Z" fill="white"/>
<path d="M285.602 436.678H434.442C435.315 436.647 436.146 436.286 436.778 435.664C437.41 435.041 437.799 434.2 437.87 433.301L451.205 166.32C451.235 165.965 451.192 165.607 451.078 165.27C450.965 164.934 450.783 164.626 450.546 164.367C450.308 164.109 450.02 163.905 449.7 163.771C449.38 163.636 449.037 163.573 448.692 163.586H299.852C298.981 163.62 298.152 163.982 297.523 164.604C296.893 165.227 296.507 166.066 296.436 166.963L283.04 433.944C283.011 434.298 283.054 434.654 283.167 434.989C283.281 435.325 283.461 435.632 283.697 435.89C283.934 436.148 284.22 436.352 284.538 436.487C284.855 436.623 285.197 436.688 285.541 436.678H285.602ZM448.692 163.901C448.995 163.891 449.297 163.946 449.578 164.063C449.86 164.18 450.115 164.357 450.326 164.581C450.53 164.814 450.686 165.087 450.784 165.384C450.883 165.68 450.922 165.995 450.9 166.307L437.577 433.289C437.51 434.106 437.155 434.87 436.579 435.437C436.004 436.003 435.248 436.332 434.454 436.363H285.614C285.312 436.375 285.012 436.321 284.732 436.204C284.452 436.086 284.2 435.909 283.992 435.683C283.783 435.454 283.624 435.181 283.525 434.883C283.426 434.586 283.39 434.27 283.418 433.957L296.728 166.975C296.793 166.159 297.146 165.395 297.719 164.828C298.292 164.262 299.047 163.932 299.839 163.901H448.692Z" fill="white"/>
<path opacity="0.3" d="M337.663 260.89C320.734 242.949 321.837 213.483 340.126 195.076C358.414 176.669 386.964 176.292 403.893 194.234C420.822 212.175 419.719 241.641 401.431 260.048C383.142 278.455 354.592 278.832 337.663 260.89Z" fill="white"/>
<path d="M334.28 227.569C333.939 233.76 335.144 239.939 337.781 245.511C340.636 251.487 345.067 256.509 350.565 259.998C356.063 263.487 362.403 265.3 368.855 265.23C375.541 265.168 382.098 263.319 387.888 259.863C393.677 256.408 398.502 251.463 401.892 245.511C405.052 240.068 406.87 233.907 407.187 227.569C407.488 222.708 406.814 217.835 405.208 213.256C403.601 208.676 401.097 204.489 397.852 200.955C394.606 197.421 390.69 194.617 386.347 192.718C382.004 190.819 377.328 189.867 372.612 189.92C362.797 190.025 353.386 193.968 346.273 200.954C339.16 207.94 334.875 217.45 334.28 227.569Z" fill="white"/>
<path d="M337.818 245.511C340.673 251.487 345.104 256.509 350.602 259.998C356.099 263.487 362.439 265.3 368.891 265.23C375.578 265.168 382.135 263.319 387.924 259.863C393.714 256.408 398.539 251.463 401.929 245.511C392.658 238.898 381.647 235.38 370.38 235.431C358.812 235.476 347.503 238.977 337.818 245.511Z" fill="white"/>
<path d="M359.476 226.693C353.377 220.229 353.776 209.611 360.368 202.977C366.96 196.343 377.248 196.205 383.347 202.669C389.446 209.133 389.047 219.751 382.455 226.385C375.863 233.019 365.575 233.157 359.476 226.693Z" fill="white"/>
<path d="M306.94 338.94H423.486C424.501 338.929 425.475 338.522 426.211 337.799C426.946 337.077 427.39 336.093 427.451 335.047L428.33 317.407C428.36 316.905 428.29 316.402 428.123 315.93C427.957 315.457 427.698 315.025 427.362 314.661C427.026 314.297 426.622 314.008 426.173 313.813C425.725 313.617 425.242 313.52 424.755 313.526H308.209C307.195 313.536 306.224 313.942 305.488 314.662C304.753 315.382 304.308 316.362 304.244 317.407L303.365 335.047C303.333 335.549 303.402 336.054 303.568 336.528C303.734 337.001 303.993 337.435 304.328 337.8C304.664 338.166 305.069 338.456 305.519 338.652C305.968 338.848 306.452 338.946 306.94 338.94Z" fill="white"/>
<path opacity="0.3" d="M342.625 303.786H391.303C392.322 303.778 393.3 303.37 394.039 302.645C394.777 301.919 395.221 300.931 395.28 299.88L395.463 296.1C395.495 295.597 395.426 295.093 395.26 294.619C395.094 294.145 394.836 293.712 394.5 293.346C394.164 292.98 393.759 292.69 393.309 292.494C392.86 292.298 392.376 292.2 391.888 292.207H343.223C342.207 292.217 341.234 292.625 340.498 293.347C339.763 294.07 339.319 295.053 339.258 296.1L339.062 299.88C339.032 300.382 339.102 300.885 339.268 301.358C339.433 301.831 339.691 302.263 340.025 302.629C340.359 302.995 340.762 303.287 341.209 303.486C341.656 303.685 342.138 303.787 342.625 303.786Z" fill="black"/>
<path opacity="0.3" d="M324.52 423.751H397.439C399.166 423.729 400.821 423.033 402.072 421.804C403.323 420.575 404.078 418.903 404.186 417.123L404.613 408.429C404.656 407.574 404.53 406.72 404.243 405.917C403.956 405.115 403.513 404.381 402.942 403.761C402.372 403.141 401.685 402.647 400.923 402.31C400.161 401.973 399.341 401.8 398.513 401.801H325.618C323.891 401.823 322.236 402.519 320.985 403.748C319.734 404.977 318.979 406.649 318.871 408.429L318.444 417.123C318.401 417.975 318.527 418.828 318.812 419.629C319.098 420.43 319.538 421.162 320.106 421.782C320.675 422.402 321.359 422.896 322.118 423.234C322.876 423.573 323.694 423.748 324.52 423.751Z" fill="black"/>
<path d="M304.805 381.604H421.364C422.378 381.59 423.35 381.181 424.085 380.459C424.82 379.738 425.264 378.756 425.329 377.71L426.207 360.07C426.237 359.568 426.167 359.064 426 358.591C425.834 358.118 425.575 357.686 425.24 357.32C424.904 356.955 424.5 356.665 424.051 356.468C423.603 356.272 423.12 356.172 422.632 356.177H306.086C305.071 356.188 304.097 356.595 303.362 357.318C302.626 358.04 302.182 359.024 302.121 360.07L301.23 377.71C301.202 378.212 301.273 378.715 301.44 379.187C301.608 379.659 301.867 380.091 302.202 380.456C302.536 380.821 302.94 381.111 303.388 381.308C303.836 381.506 304.318 381.606 304.805 381.604Z" fill="white"/>
<path d="M408.7 326.227C408.666 326.783 408.744 327.341 408.929 327.866C409.114 328.39 409.401 328.869 409.773 329.274C410.145 329.678 410.594 329.999 411.092 330.216C411.589 330.433 412.125 330.542 412.665 330.536C413.787 330.522 414.863 330.07 415.675 329.27C416.488 328.471 416.977 327.383 417.045 326.227C417.08 325.67 417.004 325.113 416.821 324.588C416.637 324.064 416.351 323.585 415.98 323.18C415.609 322.775 415.161 322.454 414.664 322.237C414.167 322.02 413.632 321.911 413.092 321.917C411.969 321.931 410.892 322.383 410.077 323.182C409.263 323.981 408.771 325.069 408.7 326.227Z" fill="#263238"/>
<path d="M395.853 326.227C395.818 326.783 395.894 327.34 396.078 327.865C396.261 328.389 396.547 328.868 396.918 329.273C397.289 329.678 397.738 329.999 398.235 330.216C398.732 330.433 399.267 330.542 399.806 330.536C400.929 330.525 402.006 330.074 402.82 329.274C403.633 328.474 404.121 327.385 404.186 326.227C404.221 325.67 404.145 325.113 403.962 324.588C403.779 324.064 403.492 323.585 403.121 323.18C402.75 322.775 402.302 322.454 401.805 322.237C401.308 322.02 400.773 321.911 400.233 321.917C399.11 321.928 398.033 322.379 397.22 323.179C396.407 323.979 395.918 325.069 395.853 326.227Z" fill="#263238"/>
<path d="M383.08 326.227C383.045 326.783 383.121 327.34 383.304 327.865C383.487 328.389 383.774 328.868 384.145 329.273C384.516 329.678 384.964 329.999 385.461 330.216C385.958 330.433 386.493 330.542 387.033 330.536C388.156 330.522 389.233 330.071 390.048 329.271C390.862 328.472 391.354 327.385 391.425 326.227C391.458 325.67 391.38 325.112 391.196 324.587C391.011 324.063 390.724 323.584 390.352 323.179C389.98 322.775 389.531 322.454 389.033 322.237C388.536 322.02 388 321.911 387.46 321.917C386.338 321.931 385.262 322.383 384.45 323.183C383.637 323.982 383.148 325.07 383.08 326.227Z" fill="#263238"/>
<path d="M370.209 326.227C370.176 326.782 370.253 327.339 370.437 327.863C370.621 328.386 370.907 328.865 371.278 329.269C371.649 329.673 372.096 329.994 372.592 330.212C373.088 330.43 373.623 330.54 374.162 330.536C375.285 330.522 376.362 330.071 377.177 329.271C377.991 328.472 378.483 327.385 378.554 326.227C378.587 325.671 378.51 325.114 378.326 324.59C378.142 324.067 377.856 323.588 377.485 323.184C377.114 322.78 376.667 322.459 376.171 322.241C375.674 322.023 375.14 321.913 374.601 321.917C373.478 321.931 372.401 322.383 371.586 323.182C370.772 323.981 370.28 325.069 370.209 326.227Z" fill="#263238"/>
<path d="M406.541 368.865C406.505 369.421 406.582 369.979 406.765 370.503C406.948 371.027 407.234 371.507 407.605 371.912C407.977 372.316 408.425 372.637 408.922 372.854C409.419 373.072 409.954 373.181 410.493 373.174C411.617 373.161 412.694 372.709 413.508 371.91C414.323 371.111 414.815 370.023 414.885 368.865C414.919 368.308 414.841 367.75 414.656 367.226C414.472 366.702 414.184 366.222 413.812 365.818C413.44 365.413 412.991 365.093 412.494 364.875C411.996 364.658 411.461 364.549 410.92 364.556C409.798 364.57 408.723 365.022 407.91 365.821C407.098 366.621 406.608 367.708 406.541 368.865Z" fill="#263238"/>
<path d="M393.718 368.865C393.685 369.421 393.763 369.978 393.946 370.501C394.13 371.025 394.417 371.503 394.787 371.907C395.158 372.312 395.606 372.633 396.102 372.851C396.598 373.069 397.132 373.179 397.671 373.174C398.795 373.161 399.871 372.709 400.686 371.91C401.501 371.111 401.992 370.023 402.063 368.865C402.099 368.309 402.022 367.751 401.839 367.227C401.656 366.703 401.37 366.223 400.998 365.818C400.627 365.414 400.179 365.093 399.682 364.876C399.185 364.658 398.65 364.549 398.11 364.556C396.987 364.569 395.91 365.021 395.096 365.82C394.281 366.619 393.789 367.707 393.718 368.865Z" fill="#263238"/>
<path d="M380.896 368.865C380.863 369.422 380.941 369.98 381.125 370.504C381.31 371.028 381.597 371.508 381.969 371.912C382.341 372.317 382.79 372.637 383.288 372.854C383.785 373.072 384.321 373.18 384.861 373.174C385.984 373.163 387.061 372.712 387.874 371.912C388.688 371.112 389.176 370.023 389.241 368.865C389.276 368.309 389.2 367.751 389.017 367.227C388.833 366.703 388.547 366.223 388.176 365.818C387.805 365.414 387.357 365.093 386.86 364.876C386.363 364.658 385.828 364.549 385.288 364.556C384.165 364.569 383.088 365.021 382.273 365.82C381.459 366.619 380.967 367.707 380.896 368.865Z" fill="#263238"/>
<path d="M368.086 368.865C368.051 369.421 368.127 369.979 368.31 370.503C368.494 371.027 368.78 371.507 369.151 371.912C369.522 372.316 369.97 372.637 370.467 372.854C370.964 373.072 371.499 373.181 372.039 373.174C373.162 373.161 374.239 372.709 375.054 371.91C375.868 371.111 376.36 370.023 376.431 368.865C376.465 368.308 376.387 367.75 376.202 367.226C376.017 366.702 375.73 366.222 375.358 365.818C374.986 365.413 374.537 365.093 374.039 364.875C373.542 364.658 373.006 364.549 372.466 364.556C371.343 364.567 370.266 365.018 369.453 365.818C368.64 366.618 368.151 367.707 368.086 368.865Z" fill="#263238"/>
<path d="M355.264 368.865C355.229 369.421 355.305 369.979 355.488 370.503C355.671 371.027 355.958 371.507 356.329 371.912C356.7 372.316 357.148 372.637 357.645 372.854C358.142 373.072 358.677 373.181 359.217 373.174C360.34 373.161 361.417 372.709 362.232 371.91C363.046 371.111 363.538 370.023 363.609 368.865C363.642 368.309 363.565 367.752 363.381 367.229C363.197 366.705 362.911 366.227 362.54 365.823C362.169 365.418 361.722 365.097 361.226 364.879C360.729 364.661 360.195 364.551 359.656 364.556C358.533 364.569 357.456 365.021 356.641 365.82C355.827 366.619 355.335 367.707 355.264 368.865Z" fill="#263238"/>
<path d="M342.442 368.865C342.408 369.422 342.486 369.98 342.671 370.504C342.855 371.028 343.143 371.508 343.515 371.912C343.887 372.317 344.336 372.637 344.833 372.854C345.331 373.072 345.867 373.18 346.407 373.174C347.529 373.16 348.604 372.708 349.417 371.909C350.229 371.109 350.719 370.022 350.787 368.865C350.822 368.309 350.746 367.751 350.562 367.227C350.379 366.703 350.093 366.223 349.722 365.818C349.351 365.414 348.902 365.093 348.405 364.876C347.909 364.658 347.373 364.549 346.834 364.556C345.71 364.569 344.633 365.021 343.819 365.82C343.004 366.619 342.512 367.707 342.442 368.865Z" fill="#263238"/>
<path d="M203.74 222.541C203.435 223.02 203.276 223.272 203.081 223.612L202.532 224.545C202.178 225.175 201.861 225.805 201.556 226.422C200.946 227.682 200.336 228.942 199.848 230.202C198.825 232.704 197.946 235.267 197.213 237.875C195.736 243.029 194.763 248.322 194.309 253.676L194.224 254.671C194.214 254.873 194.214 255.075 194.224 255.276V255.944C194.204 256.82 194.253 257.697 194.37 258.565C194.604 260.174 195.014 261.75 195.59 263.264C196.662 265.969 198.082 268.512 199.812 270.824C203.038 275.091 206.867 278.833 211.17 281.925L214.537 277.855C211.473 274.281 208.759 270.402 206.436 266.276C205.391 264.404 204.571 262.406 203.996 260.329C203.763 259.449 203.628 258.544 203.594 257.632C203.556 257.243 203.556 256.85 203.594 256.46V256.196C203.581 256.079 203.581 255.96 203.594 255.843L203.74 254.961C204.525 250.265 205.633 245.633 207.058 241.101C207.766 238.846 208.632 236.666 209.498 234.536C209.925 233.465 210.413 232.42 210.901 231.412L211.658 229.925L212.036 229.232L212.353 228.677L203.74 222.541Z" fill="#803E3C"/>
<path d="M215.086 281.95L210.67 291.589L207.168 283.437C207.168 283.437 210.279 276.381 214.488 277.036L215.086 281.95Z" fill="#7F3E3B"/>
<path d="M207.51 292.068L203.996 286.121L207.168 283.437L210.67 291.589L207.51 292.068Z" fill="#7F3E3B"/>
<path d="M227.371 514.357C226.458 514.334 225.55 514.207 224.663 513.979C224.618 513.965 224.577 513.939 224.545 513.904C224.513 513.868 224.491 513.825 224.48 513.778C224.472 513.729 224.479 513.679 224.498 513.635C224.518 513.59 224.55 513.552 224.59 513.526C224.944 513.286 228.042 511.22 229.238 511.774C229.37 511.838 229.484 511.937 229.568 512.061C229.651 512.185 229.702 512.329 229.714 512.48C229.751 512.708 229.733 512.942 229.663 513.161C229.593 513.381 229.472 513.579 229.311 513.74C228.758 514.181 228.069 514.4 227.371 514.357ZM225.358 513.614C227.127 513.992 228.469 513.929 229.018 513.437C229.13 513.323 229.213 513.18 229.257 513.024C229.302 512.868 229.308 512.702 229.275 512.543C229.275 512.329 229.153 512.266 229.067 512.228C228.408 511.925 226.615 512.82 225.358 513.614Z" fill="white"/>
<path d="M224.724 513.979H224.602C224.565 513.955 224.535 513.921 224.514 513.881C224.492 513.842 224.481 513.798 224.48 513.752C224.48 513.626 224.48 510.59 225.602 509.569C225.74 509.441 225.903 509.346 226.08 509.289C226.257 509.233 226.444 509.216 226.627 509.242C226.82 509.243 227.006 509.313 227.154 509.439C227.303 509.565 227.405 509.74 227.444 509.935C227.676 511.132 225.822 513.4 224.846 513.979H224.724ZM226.469 509.708C226.37 509.705 226.271 509.722 226.179 509.759C226.087 509.796 226.003 509.851 225.932 509.922C225.288 510.902 224.956 512.065 224.98 513.248C225.956 512.442 227.115 510.728 226.969 510.01C226.969 509.897 226.883 509.746 226.578 509.708H226.469Z" fill="white"/>
<path d="M238.888 509.216C238.86 509.18 238.841 509.135 238.834 509.088C238.828 509.042 238.834 508.994 238.851 508.95C238.869 508.906 238.897 508.868 238.934 508.84C238.97 508.811 239.013 508.793 239.059 508.788C239.559 508.788 243.939 508.574 244.939 509.683V509.758C245.022 509.867 245.076 509.997 245.095 510.134C245.114 510.271 245.098 510.411 245.049 510.539C244.984 510.756 244.869 510.953 244.714 511.113C244.559 511.273 244.368 511.392 244.159 511.459C242.743 511.913 240.242 510.262 238.876 509.242L238.888 509.216ZM244.573 510.01C244.024 509.405 241.609 509.242 239.803 509.267C241.694 510.602 243.268 511.232 244.061 510.98C244.199 510.937 244.325 510.859 244.427 510.754C244.529 510.648 244.605 510.518 244.647 510.376C244.671 510.327 244.684 510.273 244.684 510.218C244.684 510.163 244.671 510.109 244.647 510.061L244.573 510.01Z" fill="white"/>
<path d="M238.888 509.216C238.87 509.177 238.86 509.134 238.86 509.09C238.86 509.047 238.87 509.004 238.888 508.964C238.949 508.864 240.316 506.444 241.926 505.94C242.157 505.87 242.4 505.85 242.639 505.88C242.878 505.911 243.109 505.991 243.317 506.117C243.902 506.47 243.939 506.885 243.866 507.15C243.549 508.322 240.438 509.355 239.096 509.342C239.053 509.342 239.012 509.33 238.976 509.308C238.939 509.286 238.909 509.254 238.888 509.216ZM243.268 506.696C243.199 506.627 243.121 506.567 243.036 506.52C242.886 506.421 242.716 506.357 242.539 506.333C242.362 506.309 242.182 506.326 242.011 506.381C240.95 506.671 239.962 508.082 239.51 508.775C240.962 508.612 243.17 507.692 243.353 506.986C243.369 506.933 243.369 506.876 243.354 506.822C243.339 506.768 243.309 506.72 243.268 506.684V506.696Z" fill="white"/>
<path d="M225.456 185.636C226.676 191.936 229.311 205.556 225.078 209.74C225.078 209.74 226.737 216.04 237.998 216.04C250.393 216.04 243.915 209.74 243.915 209.74C237.156 208.076 237.327 202.885 238.51 198.022L225.456 185.636Z" fill="#7F3E3B"/>
<path d="M246.098 170.869C246.03 170.88 245.96 170.88 245.891 170.869C245.833 170.839 245.781 170.798 245.739 170.748C245.696 170.698 245.664 170.639 245.643 170.576C245.623 170.513 245.615 170.446 245.62 170.379C245.624 170.313 245.642 170.248 245.671 170.188C245.999 169.47 246.49 168.843 247.101 168.36C247.713 167.878 248.427 167.554 249.185 167.416C249.312 167.405 249.438 167.445 249.538 167.527C249.638 167.609 249.703 167.727 249.722 167.857C249.735 167.989 249.698 168.121 249.618 168.225C249.538 168.329 249.422 168.396 249.295 168.412C248.697 168.53 248.134 168.794 247.655 169.182C247.175 169.57 246.792 170.07 246.537 170.642C246.49 170.716 246.425 170.777 246.348 170.816C246.27 170.856 246.184 170.874 246.098 170.869Z" fill="#263238"/>
<path d="M249.795 176.4C250.755 178.239 251.954 179.935 253.357 181.44C252.977 181.799 252.526 182.068 252.035 182.229C251.545 182.39 251.026 182.439 250.515 182.372L249.795 176.4Z" fill="#630F0F"/>
<path d="M248.88 174.976C248.978 175.82 249.502 176.45 250.027 176.387C250.551 176.324 250.917 175.581 250.82 174.737C250.722 173.893 250.198 173.263 249.6 173.326C249.002 173.389 248.795 174.132 248.88 174.976Z" fill="#263238"/>
<path d="M249.441 173.401L251.32 172.62C251.32 172.62 250.527 174.283 249.441 173.401Z" fill="#263238"/>
<path d="M228.116 506.822L238.071 509.216L244.122 485.579L234.167 483.185L228.116 506.822Z" fill="#7F3E3B"/>
<path d="M212.841 513.727H223.052L222.259 489.296H212.036L212.841 513.727Z" fill="#7F3E3B"/>
<path d="M223.87 512.505H212.39C212.191 512.503 211.998 512.576 211.847 512.711C211.697 512.846 211.599 513.032 211.572 513.236L210.267 522.61C210.241 522.847 210.264 523.087 210.335 523.315C210.405 523.542 210.521 523.751 210.676 523.928C210.83 524.106 211.02 524.247 211.231 524.344C211.442 524.44 211.671 524.489 211.902 524.488C215.903 524.425 217.831 524.173 222.882 524.173C225.993 524.173 230.531 524.513 234.813 524.513C239.096 524.513 239.34 520.128 237.546 519.737C229.543 517.948 228.274 515.504 225.578 513.16C225.102 512.74 224.496 512.508 223.87 512.505Z" fill="#263238"/>
<path d="M238.949 507.641L228.518 502.69C228.341 502.602 228.139 502.585 227.95 502.641C227.762 502.696 227.599 502.821 227.493 502.992L222.504 510.955C222.387 511.16 222.313 511.388 222.287 511.624C222.261 511.86 222.284 512.1 222.352 512.326C222.421 512.553 222.536 512.762 222.688 512.941C222.84 513.119 223.026 513.263 223.236 513.362C226.896 515.025 228.75 515.642 233.337 517.822C236.155 519.158 241.877 522.232 245.757 524.122C249.636 526.012 251.637 522.094 250.173 520.96C243.622 515.92 241.743 512.303 240.242 509.015C239.989 508.409 239.528 507.92 238.949 507.641Z" fill="#263238"/>
<path opacity="0.2" d="M244.122 485.579L240.877 498.254L231.044 495.369L234.155 483.185L244.122 485.579Z" fill="black"/>
<path opacity="0.2" d="M212.036 489.296H222.259L222.662 501.896H212.439L212.036 489.296Z" fill="black"/>
<path d="M207.4 212.134C203.154 213.104 198.616 228.866 198.616 228.866L210.621 242.059C210.621 242.059 220.588 227.241 218.551 221.798C216.489 216.115 212.463 211 207.4 212.134Z" fill="#263238"/>
<path opacity="0.4" d="M214.183 222.176C216.33 220.147 217.782 220.752 218.77 222.365C219.746 227.052 213.964 236.867 211.633 240.584C210.56 236.149 209.328 226.8 214.183 222.176Z" fill="black"/>
<path d="M261.19 212.449C261.19 212.449 266.07 214.213 256.31 276.142H214.83C215.525 258.703 215.55 247.943 207.51 212.134C213.322 210.895 219.214 210.095 225.139 209.74C231.41 209.273 237.705 209.273 243.976 209.74C252.015 210.508 261.19 212.449 261.19 212.449Z" fill="#263238"/>
<path opacity="0.4" d="M261.568 236.212C261.299 239.224 260.946 242.613 260.482 246.443C257.078 243.281 254.297 234.284 255.321 229.043C257.753 231.081 259.861 233.5 261.568 236.212Z" fill="black"/>
<path d="M257.127 226.8C259.365 232.618 261.886 238.316 264.679 243.873C267.44 249.63 270.707 255.113 274.439 260.253L275.22 261.248L275.61 261.74C275.744 261.904 275.854 262.055 276.062 262.282C276.796 263.109 277.614 263.852 278.502 264.499C280.071 265.621 281.788 266.504 283.601 267.12C286.763 268.163 290.045 268.765 293.361 268.909C299.571 269.164 305.787 268.593 311.856 267.208L311.185 261.916C308.379 261.916 305.439 261.916 302.645 261.677C299.839 261.534 297.044 261.214 294.276 260.719C291.705 260.305 289.191 259.577 286.785 258.552C285.814 258.123 284.906 257.555 284.089 256.864C283.777 256.594 283.495 256.29 283.247 255.956C283.247 255.956 283.101 255.755 283.003 255.616L282.723 255.2L282.149 254.369C279.088 249.485 276.361 244.387 273.988 239.11C271.548 233.755 269.108 228.199 266.875 222.73L257.127 226.8Z" fill="#803E3C"/>
<path d="M261.19 212.449C266.277 213.709 272.524 228.123 272.524 228.123L261.983 244.125C261.983 244.125 247.941 225.868 249.612 220.298C251.32 214.49 254.98 210.886 261.19 212.449Z" fill="#263238"/>
<path d="M308.257 262.723L317.053 258.527L317.932 267.561C317.932 267.561 310.612 269.791 306.952 267.561L308.257 262.723Z" fill="#7F3E3B"/>
<path d="M322.312 257.62L323.154 264.499L317.932 267.561L317.054 258.527L322.312 257.62Z" fill="#7F3E3B"/>
<path d="M221.04 175.594C222.906 185.888 223.48 190.298 229.189 194.972C237.729 202.003 249.624 197.392 250.771 186.732C251.82 177.131 248.599 161.91 238.266 159.012C235.99 158.363 233.591 158.328 231.297 158.909C229.004 159.49 226.893 160.668 225.166 162.33C223.438 163.993 222.152 166.085 221.43 168.407C220.707 170.729 220.573 173.203 221.04 175.594Z" fill="#7F3E3B"/>
<path d="M242.939 177.761C243.512 183.015 243.732 196.661 232.556 197.089C218.88 197.606 214.781 185.535 216.001 180.709C208.876 174.724 207.851 164.43 215.855 156.555C223.858 148.68 241.475 153.077 246.355 160.751C252.54 170.264 242.939 177.761 242.939 177.761Z" fill="#263238"/>
<path d="M229.238 159.617C229.897 154.073 229.384 150.255 224.358 150.255C219.331 150.255 212.475 152.132 209.962 157.437C207.449 162.742 207.241 171.045 214.256 170.201C221.271 169.357 228.445 166.244 229.238 159.617Z" fill="white"/>
<path d="M221.454 158.281C222.674 151.679 216.952 133.081 203.057 131.821C196.615 131.254 193.638 138.411 196.957 139.595C190.857 139.52 186.953 147.848 192.638 149.096C188.148 152.069 189.258 158.168 195.663 161.167C200.434 163.435 219.807 167.429 221.454 158.281Z" fill="#263238"/>
<path d="M206.607 165.375C211.084 165.375 215.757 164.695 218.661 162.691C219.472 162.186 220.156 161.488 220.654 160.655C221.153 159.823 221.452 158.879 221.528 157.903C221.531 157.82 221.504 157.739 221.452 157.676C221.4 157.613 221.327 157.573 221.247 157.563C221.207 157.558 221.166 157.561 221.126 157.573C221.087 157.585 221.051 157.606 221.02 157.633C220.989 157.66 220.964 157.694 220.946 157.732C220.929 157.77 220.919 157.811 220.918 157.853C220.844 158.734 220.57 159.584 220.119 160.335C219.667 161.086 219.051 161.716 218.319 162.175C212.792 165.955 200.019 164.695 196.042 163.435C192.601 162.275 190.271 160.02 189.808 157.424C189.663 156.472 189.777 155.497 190.137 154.607C190.496 153.717 191.088 152.948 191.845 152.384C191.874 152.356 191.897 152.322 191.913 152.284C191.929 152.246 191.937 152.205 191.937 152.164C191.937 152.123 191.929 152.082 191.913 152.044C191.897 152.006 191.874 151.972 191.845 151.943C191.788 151.886 191.711 151.853 191.631 151.853C191.552 151.853 191.475 151.886 191.418 151.943C190.566 152.585 189.904 153.459 189.506 154.467C189.107 155.475 188.988 156.577 189.161 157.651C189.661 160.486 192.138 162.905 195.798 164.14C199.329 165.06 202.966 165.475 206.607 165.375Z" fill="#263238"/>
<path d="M246.05 176.4C247.186 178.046 247.654 180.085 247.355 182.083C246.952 184.729 244.464 184.905 242.658 183.217C240.852 181.528 239.279 178.479 240.608 176.287C240.904 175.813 241.312 175.425 241.793 175.161C242.275 174.896 242.814 174.763 243.36 174.774C243.905 174.786 244.439 174.941 244.909 175.226C245.38 175.51 245.773 175.914 246.05 176.4Z" fill="#7F3E3B"/>
<path d="M245.354 276.142C245.354 276.142 239.425 348.579 233.264 389.403C228.299 422.377 224.37 499.451 224.37 499.451H210.438C210.438 499.451 205.485 424.683 207.998 392.074C214.378 309.544 200.141 302.816 214.793 276.154L245.354 276.142Z" fill="white"/>
<path opacity="0.4" d="M227.811 303.521C233.332 309.507 237.788 316.451 240.974 324.034C239.352 340.313 237.424 358.382 235.375 374.207C226.964 351.721 224.358 327.362 227.811 303.521Z" fill="black"/>
<path d="M255.102 275.688C255.102 275.688 267.973 354.803 269.998 390.461C264.947 423.436 244.281 493.139 244.281 493.139L231.605 488.389C231.605 488.389 238.62 412.385 246.245 391.583C229.079 331.897 216.465 316.802 220.137 276.142C228.933 276.142 255.102 275.688 255.102 275.688Z" fill="white"/>
<path d="M245.976 496.616L228.848 491.816L229.824 484.76L248.16 489.888L245.976 496.616Z" fill="#263238"/>
<path d="M226.286 499.741H208.535L207.607 493.315L226.383 492.66L226.286 499.741Z" fill="#263238"/>
<path d="M214.183 273.622L212.317 277.465C212.17 277.767 212.512 278.069 212.987 278.069H256.517C256.883 278.069 257.2 277.88 257.225 277.628L257.603 273.848C257.603 273.584 257.298 273.357 256.895 273.357H214.866C214.74 273.339 214.612 273.354 214.492 273.4C214.373 273.446 214.267 273.523 214.183 273.622Z" fill="white"/>
<path opacity="0.5" d="M214.183 273.622L212.317 277.465C212.17 277.767 212.512 278.069 212.987 278.069H256.517C256.883 278.069 257.2 277.88 257.225 277.628L257.603 273.848C257.603 273.584 257.298 273.357 256.895 273.357H214.866C214.74 273.339 214.612 273.354 214.492 273.4C214.373 273.446 214.267 273.523 214.183 273.622Z" fill="black"/>
<path d="M219.832 278.46H218.709C218.478 278.46 218.307 278.334 218.319 278.195L218.856 273.155C218.856 273.004 219.063 272.891 219.283 272.891H220.417C220.637 272.891 220.808 273.004 220.796 273.155L220.271 278.195C220.246 278.359 220.051 278.46 219.832 278.46Z" fill="white"/>
<path d="M234.935 241.769C235.07 241.767 235.2 241.72 235.308 241.637C235.415 241.553 235.494 241.436 235.533 241.303C239.51 226.107 247.733 213.583 251.723 211.693C252.033 211.496 252.405 211.433 252.76 211.516C252.833 211.556 252.914 211.58 252.997 211.587C253.08 211.594 253.164 211.583 253.242 211.555C253.321 211.527 253.393 211.482 253.455 211.424C253.516 211.366 253.566 211.296 253.6 211.218C253.634 211.139 253.653 211.054 253.654 210.968C253.655 210.882 253.639 210.797 253.607 210.718C253.576 210.638 253.528 210.566 253.468 210.506C253.409 210.447 253.338 210.4 253.26 210.37C252.926 210.243 252.57 210.193 252.216 210.224C251.862 210.254 251.519 210.364 251.21 210.546C246.989 212.612 238.644 224.96 234.472 240.496C231.483 240.496 226.871 240.08 225.749 239.98C224.358 238.266 214.134 225.061 217.953 210.609C217.975 210.53 217.981 210.446 217.972 210.364C217.962 210.282 217.937 210.203 217.897 210.131C217.857 210.06 217.804 209.997 217.74 209.947C217.676 209.897 217.603 209.861 217.526 209.84C217.371 209.798 217.205 209.82 217.066 209.903C216.927 209.986 216.825 210.122 216.782 210.281C212.524 226.359 224.87 240.862 225.005 241C225.052 241.061 225.111 241.112 225.178 241.149C225.246 241.186 225.319 241.208 225.395 241.214C225.456 241.214 231.544 241.769 234.935 241.769Z" fill="white"/>
<path d="M214.72 250.664C221.369 237.8 224.089 236.893 225.273 232.76C224.376 230.449 223.096 228.317 221.491 226.46C222.296 226.22 224.028 225.868 225.151 225.653C225.029 225.086 224.895 224.532 224.773 223.99C225.994 223.849 227.229 223.909 228.433 224.167V222.907C229.982 222.558 231.574 222.452 233.154 222.592C233.016 223.188 232.882 223.793 232.751 224.406C233.971 224.645 235.826 225.036 236.716 225.301C234.986 227.325 233.715 229.723 232.995 232.319C236.582 238.682 250.515 279.581 227.847 282.719C205.179 285.856 208.083 263.542 214.72 250.664Z" fill="white"/>
<path opacity="0.4" d="M214.72 250.664C221.369 237.8 224.089 236.893 225.273 232.76C224.376 230.449 223.096 228.317 221.491 226.46C222.296 226.22 224.028 225.868 225.151 225.653C225.029 225.086 224.895 224.532 224.773 223.99C225.994 223.849 227.229 223.909 228.433 224.167V222.907C229.982 222.558 231.574 222.452 233.154 222.592C233.016 223.188 232.882 223.793 232.751 224.406C233.971 224.645 235.826 225.036 236.716 225.301C234.986 227.325 233.715 229.723 232.995 232.319C236.582 238.682 250.515 279.581 227.847 282.719C205.179 285.856 208.083 263.542 214.72 250.664Z" fill="white"/>
<path d="M233.923 231.097C234.064 231.746 234.125 232.41 234.106 233.075C234.106 233.541 232.886 233.856 231.532 233.995C230.177 234.133 224.492 234.36 224.675 233.705C224.858 233.05 224.395 232.155 224.37 231.601C224.346 231.046 226.627 231.021 228.543 231.097C230.458 231.172 233.545 230.391 233.923 231.097Z" fill="white"/>
<path d="M247.111 278.46H245.989C245.769 278.46 245.598 278.334 245.61 278.195L246.135 273.155C246.135 273.004 246.342 272.891 246.574 272.891H247.66C247.88 272.891 248.05 273.004 248.038 273.155L247.514 278.195C247.538 278.359 247.343 278.46 247.111 278.46Z" fill="white"/>
</svg>
