<svg width="117" height="41" viewBox="0 0 117 41" fill="none" xmlns="http://www.w3.org/2000/svg">
<circle cx="35.875" cy="20.5" r="20.5" fill="#0F0F0F"/>
<circle cx="14.2768" cy="25.9911" r="14.2768" fill="#666666"/>
<path d="M82.0176 21.2246C82.0176 22.8327 81.7083 24.1771 81.0898 25.2578C80.4779 26.332 79.5892 27.1426 78.4238 27.6895C77.2585 28.2298 75.8555 28.5 74.2148 28.5H70.1719V14.2227H74.6543C76.1517 14.2227 77.4505 14.4896 78.5508 15.0234C79.651 15.5508 80.5039 16.3353 81.1094 17.377C81.7148 18.4121 82.0176 19.6947 82.0176 21.2246ZM78.873 21.3027C78.873 20.248 78.7168 19.3822 78.4043 18.7051C78.0983 18.0215 77.6426 17.5169 77.0371 17.1914C76.4382 16.8659 75.696 16.7031 74.8105 16.7031H73.1992V26H74.498C75.9759 26 77.0729 25.6061 77.7891 24.8184C78.5117 24.0306 78.873 22.8587 78.873 21.3027ZM93.7168 28.5L92.6816 25.1016H87.4766L86.4414 28.5H83.1797L88.2188 14.1641H91.9199L96.9785 28.5H93.7168ZM91.959 22.5625L90.9238 19.2422C90.8587 19.0208 90.7708 18.7376 90.6602 18.3926C90.556 18.041 90.4486 17.6862 90.3379 17.3281C90.2337 16.9635 90.1491 16.6478 90.084 16.3809C90.0189 16.6478 89.9277 16.9798 89.8105 17.377C89.6999 17.7676 89.5924 18.1387 89.4883 18.4902C89.3841 18.8418 89.3092 19.0924 89.2637 19.2422L88.2383 22.5625H91.959ZM104.83 28.5L101.393 17.2988H101.305C101.318 17.5658 101.337 17.9694 101.363 18.5098C101.396 19.0436 101.425 19.6133 101.451 20.2188C101.477 20.8242 101.49 21.3711 101.49 21.8594V28.5H98.7852V14.2227H102.906L106.285 25.1406H106.344L109.928 14.2227H114.049V28.5H111.227V21.7422C111.227 21.293 111.233 20.7754 111.246 20.1895C111.266 19.6035 111.288 19.0469 111.314 18.5195C111.34 17.9857 111.36 17.5853 111.373 17.3184H111.285L107.604 28.5H104.83Z" fill="#0F0F0F"/>
</svg>
